<svg height="31" viewBox="0 0 148 31" width="148" xmlns="http://www.w3.org/2000/svg"><path d="m8.198 25.548c.64400322 0 1.30199664-.1469985 1.974-.441.6720034-.2940015 1.3159969-.7209972 1.932-1.281v-2.562h-3.528c-.81200406 0-1.44199776.2379976-1.89.714s-.672 1.0359968-.672 1.68c0 .5040025.2099979.9449981.63 1.323s.93799692.567 1.554.567zm1.344-16.506c2.5480127 0 4.6409918.72799272 6.279 2.184 1.6380082 1.4560073 2.457 3.3319885 2.457 5.628v13.146h-3.024l-1.344-1.68c-.7000035.6160031-1.5609949 1.1339979-2.583 1.554s-2.06499468.63-3.129.63c-2.5200126 0-4.38899391-.6229938-5.607-1.869s-1.827-2.8769899-1.827-4.893c0-2.1280106.72099279-3.7379945 2.163-4.83s3.32498838-1.638 5.649-1.638h3.486c-.0560003-.8680043-.3569973-1.5539975-.903-2.058s-1.26699552-.756-2.163-.756c-.86800434 0-1.83399468.1259987-2.898.378s-1.98799608.5599982-2.772.924l-1.638-4.872c.86800434-.5040025 2.11399188-.93799818 3.738-1.302s2.9959944-.546 4.116-.546zm22.188 16.254c.5320027 0 1.1199968-.1119989 1.764-.336s1.2319973-.5039983 1.764-.84v-8.652c-.5320027-.4200021-1.1339966-.7629987-1.806-1.029s-1.3159969-.399-1.932-.399c-1.6520083 0-2.8069967.6159938-3.465 1.848s-.987 2.4919936-.987 3.78c0 1.4840074.3359966 2.7929943 1.008 3.927s1.8899912 1.701 3.654 1.701zm9.744-24.948v29.652h-3.192l-1.47-2.016c-.8120041.7000035-1.8129941 1.2949976-3.003 1.785-1.190006.4900025-2.4289936.735-3.717.735-3.0800154 0-5.417992-1.0289897-7.014-3.087s-2.394-4.6129847-2.394-7.665c0-3.0800154.8329917-5.6629896 2.499-7.749 1.6660083-2.08601043 4.0809842-3.129 7.245-3.129.7000035 0 1.4839957.11199888 2.352.336s1.6939961.5459979 2.478.966v-9.366zm9.336 29.652-7.812-19.614 6.258-.756 4.494 12.054 4.284-12.054h6.342l-8.022 20.37zm21.558-4.452c.6440032 0 1.3019966-.1469985 1.974-.441s1.3159969-.7209972 1.932-1.281v-2.562h-3.528c-.8120041 0-1.4419978.2379976-1.89.714s-.672 1.0359968-.672 1.68c0 .5040025.2099979.9449981.63 1.323s.9379969.567 1.554.567zm1.344-16.506c2.5480127 0 4.6409918.72799272 6.279 2.184 1.6380082 1.4560073 2.457 3.3319885 2.457 5.628v13.146h-3.024l-1.344-1.68c-.7000035.6160031-1.5609949 1.1339979-2.583 1.554s-2.0649947.63-3.129.63c-2.5200126 0-4.3889939-.6229938-5.607-1.869s-1.827-2.8769899-1.827-4.893c0-2.1280106.7209928-3.7379945 2.163-4.83s3.3249884-1.638 5.649-1.638h3.486c-.0560003-.8680043-.3569973-1.5539975-.903-2.058s-1.2669955-.756-2.163-.756c-.8680043 0-1.8339947.1259987-2.898.378s-1.9879961.5599982-2.772.924l-1.638-4.872c.8680043-.5040025 2.1139919-.93799818 3.738-1.302s2.9959944-.546 4.116-.546zm24.414-.168c2.800014 0 4.794994.80499195 5.985 2.415 1.190006 1.6100081 1.785 3.6049881 1.785 5.985v12.726h-6.174v-12.474c0-1.1200056-.2869971-1.980997-.861-2.583s-1.364995-.903-2.373-.903c-.6720034 0-1.4209959.1749983-2.247.525-.8260041.3500018-1.5749966.7489978-2.247 1.197v14.238h-6.174v-20.37h3.192l1.638 2.058c.8960045-.7840039 2.043993-1.4489973 3.444-1.995 1.400007-.54600273 2.7439936-.819 4.032-.819zm21.222 5.334c-1.372007 0-2.484996.5249948-3.339 1.575-.854004 1.0500053-1.281 2.4009917-1.281 4.053s.426996 2.974995 1.281 3.969 1.966993 1.491 3.339 1.491c.868004 0 1.651997-.097999 2.352-.294.700004-.196001 1.525995-.5179978 2.478-.966l1.722 4.368c-1.008005.7840039-2.183993 1.3299985-3.528 1.638s-2.449996.462-3.318.462c-3.304017 0-5.91499-.9519905-7.833-2.856s-2.877-4.5079835-2.877-7.812.95899-5.9289903 2.877-7.875 4.528983-2.919 7.833-2.919c.868004 0 1.966993.15399846 3.297.462s2.512995.8539961 3.549 1.638l-1.722 4.368c-.952005-.4480022-1.777996-.7769989-2.478-.987-.700003-.210001-1.483996-.315-2.352-.315zm18.408-5.166c3.192016 0 5.557992 1.0499895 7.098 3.15s2.31 4.5919856 2.31 7.476v2.016h-13.272c.280001 1.1480057.860996 2.0439968 1.743 2.688s2.008993.966 3.381.966c.924005 0 1.784996-.1049989 2.583-.315.798004-.210001 1.658995-.5389978 2.583-.987l1.806 4.368c-1.036005.7840039-2.295993 1.3299985-3.78 1.638s-2.659996.462-3.528.462c-3.444017 0-6.20899-.9309907-8.295-2.793s-3.129-4.4869831-3.129-7.875c0-3.3040165.96599-5.9289903 2.898-7.875s4.465984-2.919 7.602-2.919zm-.168 5.124c-.952005 0-1.763997.3079969-2.436.924s-1.105999 1.4839944-1.302 2.604h7.434c-.196001-1.0640053-.601997-1.9179968-1.218-2.562s-1.441995-.966-2.478-.966z" fill="#1c3ed3" fill-rule="evenodd"/></svg>