<svg version="1.1" id="Layer_1" xmlns="http://www.w3.org/2000/svg" xmlns:xlink="http://www.w3.org/1999/xlink" x="0px" y="0px"
	 width="100%" viewBox="0 0 1202 1202" enable-background="new 0 0 1202 1202" xml:space="preserve">
<path fill="#FFFFFF" opacity="1.000000" stroke="none" 
	d="
M755.000000,1203.000000 
	C504.833344,1203.000000 255.166672,1202.990234 5.500039,1203.093384 
	C1.750826,1203.094971 0.906088,1202.249023 0.907023,1198.500000 
	C1.006178,800.833313 1.006178,403.166656 0.907023,5.500023 
	C0.906088,1.750934 1.750933,0.906089 5.500023,0.907023 
	C403.166656,1.006175 800.833313,1.006175 1198.500000,0.907023 
	C1202.249023,0.906089 1203.093994,1.750933 1203.093140,5.500023 
	C1202.993896,403.166656 1202.993896,800.833313 1203.093018,1198.500000 
	C1203.093994,1202.249023 1202.249390,1203.096802 1198.499878,1203.093994 
	C1050.833374,1202.983521 903.166687,1203.000000 755.000000,1203.000000 
z"/>
<path fill="#0C131B" opacity="1.000000" stroke="none" 
	d="
M506.000793,912.000000 
	C506.000824,922.833313 505.869843,933.169189 506.076691,943.498352 
	C506.142944,946.807068 505.535583,948.020874 501.837921,948.009827 
	C455.505157,947.870972 409.171783,947.886902 362.838806,947.987915 
	C359.616486,947.994934 358.625824,947.217529 358.647522,943.875977 
	C358.872711,909.216858 358.242249,874.536743 359.244232,839.902832 
	C360.085724,810.816650 367.076416,783.026001 383.118744,758.173523 
	C402.740112,727.776306 431.686066,711.285645 466.065430,703.067017 
	C484.367249,698.691833 503.211029,697.650452 521.660156,694.111206 
	C557.495483,687.236572 591.912170,676.867371 621.921936,655.060913 
	C645.103699,638.215942 662.472778,616.331665 677.034973,591.966797 
	C687.242798,574.887451 700.745972,560.850403 716.273193,548.474243 
	C732.582703,535.474609 750.653625,533.426086 770.358582,537.476868 
	C800.463196,543.665588 828.658813,555.198242 856.562805,567.588745 
	C874.002563,575.332642 891.052002,583.897095 908.109863,592.448059 
	C912.209290,594.503113 912.874146,596.328308 911.534851,600.666992 
	C888.964539,673.786194 840.756287,721.644226 768.629028,745.842590 
	C737.332031,756.342651 704.966187,760.843811 672.030273,760.952820 
	C618.364380,761.130493 564.697388,761.053284 511.031342,760.897461 
	C506.904205,760.885437 505.879150,761.814758 505.893616,765.999573 
	C506.061310,814.499268 506.000793,862.999756 506.000793,912.000000 
z"/>
<path fill="#0D141C" opacity="1.000000" stroke="none" 
	d="
M874.143921,373.874207 
	C901.198181,408.595093 915.869446,447.861359 921.143494,490.980865 
	C925.172485,523.920837 922.741455,556.365234 914.801331,588.486633 
	C914.495850,589.722534 913.994385,590.909973 913.426086,592.586609 
	C901.083984,584.562561 888.976379,576.727478 876.905518,568.836243 
	C842.400452,546.278931 807.927612,523.672058 773.376831,501.184875 
	C770.947510,499.603790 769.672791,497.811462 768.979736,495.019623 
	C759.820435,458.122192 724.507507,425.222931 678.574036,427.733337 
	C656.973633,428.913879 637.357056,435.875549 618.952454,446.745239 
	C597.614990,459.346985 577.986816,457.404724 559.594177,440.918610 
	C506.997955,393.774139 452.536957,348.965485 393.916992,309.412506 
	C383.587311,302.442719 373.005676,295.846313 362.533844,289.087616 
	C361.883362,288.667816 360.962433,288.552032 360.903656,287.080414 
	C362.525940,287.080414 364.113770,287.080444 365.701599,287.080444 
	C469.518921,287.080566 573.338501,286.677063 677.152649,287.251129 
	C729.008240,287.537872 778.278198,298.986267 822.642883,327.283020 
	C842.320068,339.833588 859.423035,355.287781 874.143921,373.874207 
z"/>
<path fill="#5CB6C2" opacity="1.000000" stroke="none" 
	d="
M358.877594,710.000000 
	C358.877502,650.182983 358.845734,590.865845 358.956665,531.549011 
	C358.963287,527.996887 357.870728,525.916321 354.993988,523.789429 
	C321.186096,498.793610 299.568542,465.371857 288.077545,425.260254 
	C273.758636,375.277374 277.015869,325.577881 291.435303,276.204254 
	C293.314453,269.769867 294.924164,263.189697 298.685638,255.884018 
	C298.557037,286.302002 303.933929,314.377808 312.986877,341.788055 
	C325.660889,380.161896 344.552216,415.038757 371.567047,445.331757 
	C379.013336,453.681641 386.970490,461.471954 395.664551,468.487457 
	C398.194031,470.528625 398.602509,472.987335 398.767029,475.936523 
	C400.662903,509.911865 410.911682,541.151001 429.741180,569.525879 
	C433.429077,575.083252 437.331940,580.555420 442.515045,584.800964 
	C445.811615,587.501160 445.079102,589.131714 442.506226,591.860291 
	C410.122009,626.203918 385.167328,665.177063 369.520813,709.885315 
	C365.516785,721.326294 362.300781,732.994507 358.877686,744.815308 
	C358.877686,733.376892 358.877686,721.938416 358.877594,710.000000 
z"/>
</svg>