<svg version="1.1" id="Layer_1" xmlns="http://www.w3.org/2000/svg" xmlns:xlink="http://www.w3.org/1999/xlink" x="0px" y="0px"
	 width="100%" viewBox="0 0 1800 436" enable-background="new 0 0 1800 436" xml:space="preserve">
<path fill="#FEFFFF" opacity="1.000000" stroke="none" 
	d="
M559.276367,436.641357 
	C537.645752,437.000000 516.291565,437.000000 494.468658,437.000000 
	C493.926422,436.706177 493.852814,436.412354 494.069153,435.769470 
	C495.598633,434.518738 497.063568,434.141022 498.490570,433.706818 
	C504.431976,431.898956 507.923676,427.725555 509.828735,422.024323 
	C510.944397,418.685394 511.503265,415.254822 511.502075,411.720215 
	C511.496674,395.739929 511.500458,379.759674 511.495483,363.779388 
	C511.495117,362.614899 511.473755,361.453033 511.308441,360.293396 
	C511.050049,358.480835 509.934174,357.753479 508.215240,357.717957 
	C506.320618,357.678802 504.994751,358.345398 504.690857,360.414490 
	C504.471741,361.906555 504.504547,363.402893 504.503571,364.899139 
	C504.494843,378.382507 504.477570,391.865936 504.513275,405.349213 
	C504.523468,409.199463 504.163513,412.996704 503.361969,416.752045 
	C501.891907,423.639679 497.752136,427.925323 490.743744,428.208527 
	C474.946930,428.846924 459.120026,428.829590 443.322266,428.217041 
	C436.342407,427.946411 431.917450,423.163208 430.589050,416.232941 
	C428.974640,407.810791 429.592560,399.307953 429.517639,390.832214 
	C429.435242,381.511078 429.534363,372.188599 429.470886,362.867035 
	C429.459808,361.241455 429.706665,359.413269 428.129852,358.285431 
	C426.977783,357.461426 425.595490,357.516693 424.300964,358.013916 
	C422.527710,358.695068 422.591278,360.356720 422.564575,361.810455 
	C422.420746,369.632874 422.512909,377.456970 422.502777,385.280457 
	C422.491547,393.936432 422.442780,402.592865 422.516083,411.248322 
	C422.629242,424.604218 426.610077,430.313385 439.263763,435.170471 
	C439.840393,435.647675 440.032471,435.882660 440.112305,436.558838 
	C412.645782,437.000000 385.291534,437.000000 357.468658,437.000000 
	C356.914673,436.726410 356.829315,436.452789 356.988800,435.826477 
	C358.013794,434.817657 358.941864,434.457275 359.887390,434.120483 
	C370.817932,430.227142 375.370239,424.094086 375.538910,412.546204 
	C375.694611,401.885101 375.701538,391.218811 375.541534,380.557953 
	C375.320740,365.844971 368.975952,358.685791 354.356140,357.355133 
	C335.924347,355.677490 317.437958,355.711914 298.999969,357.392456 
	C285.842896,358.591705 279.301392,365.081390 278.617462,378.205933 
	C277.984985,390.342346 278.079803,402.534607 278.599823,414.680542 
	C279.075165,425.782562 285.532104,432.264923 296.424591,435.214417 
	C296.935181,435.704010 297.097534,435.941071 297.129944,436.589050 
	C277.979095,437.000000 258.958221,437.000000 239.468658,437.000000 
	C238.854156,436.720947 238.708313,436.441925 238.497833,435.695953 
	C238.046356,428.759430 237.941971,428.606110 231.441635,428.586975 
	C215.969757,428.541443 200.497559,428.622864 185.025833,428.549255 
	C177.374954,428.512848 176.468231,427.585052 176.445236,419.845856 
	C176.391388,401.712158 176.432922,383.578247 176.423279,365.444427 
	C176.422394,363.782288 176.449875,362.120392 176.202454,360.464569 
	C175.936356,358.684052 174.877060,357.861450 173.151871,357.817932 
	C171.210663,357.769012 170.012650,358.605591 169.763885,360.649536 
	C169.561874,362.309235 169.577209,363.969727 169.576736,365.631714 
	C169.570801,386.094635 169.578751,406.557587 169.566681,427.020508 
	C169.565201,429.512939 169.697617,432.013428 169.161087,434.949036 
	C168.879547,435.686035 168.731079,435.966522 168.291306,436.623535 
	C147.979111,437.000000 127.958214,437.000000 107.468658,437.000000 
	C106.919243,436.721863 106.838493,436.443695 107.024353,435.823120 
	C108.244553,434.767944 109.380913,434.477783 110.476044,434.083282 
	C119.759781,430.738800 124.560020,422.379578 122.771675,412.771301 
	C122.422150,410.893402 121.550713,409.727783 119.509796,409.709534 
	C117.679146,409.693146 116.818985,410.708679 116.503311,412.396667 
	C116.381454,413.048248 116.589043,412.243408 116.430290,412.890900 
	C113.160248,426.228851 110.358635,428.423462 96.493103,428.434021 
	C83.673042,428.443787 70.852432,428.512787 58.033039,428.410583 
	C45.995697,428.314606 40.618164,422.907928 40.573345,411.001282 
	C40.533863,400.512299 40.482533,390.022308 40.593300,379.534088 
	C40.695221,369.883423 44.736889,364.870300 54.260372,363.586853 
	C69.326385,361.556396 84.495178,362.339172 99.610664,363.057770 
	C108.265884,363.469208 113.947731,367.962250 115.284828,376.957001 
	C115.681389,379.624786 117.154175,380.733521 119.775726,380.322479 
	C122.626671,379.875427 122.346519,377.789490 122.146706,375.726929 
	C121.052567,364.433105 116.772102,359.314880 105.600632,357.851074 
	C86.890816,355.399506 68.073410,355.543274 49.348751,357.716217 
	C39.087238,358.907043 33.706566,365.229706 32.575333,375.807526 
	C31.155590,389.083038 30.833109,402.354584 32.508724,415.641052 
	C33.636383,424.582642 37.200581,431.573120 46.621063,434.174286 
	C47.895763,434.526276 49.180042,434.968292 50.001030,436.573303 
	C35.181629,437.000000 20.361090,436.862885 5.546422,437.097137 
	C1.877906,437.155151 0.893869,436.415771 0.897651,432.553864 
	C1.021550,306.015106 1.000000,179.476196 1.000000,52.468658 
	C1.243687,51.903061 1.487373,51.806122 2.059744,51.923138 
	C4.049314,54.760704 4.157730,57.832413 4.815130,60.734169 
	C8.048201,75.004868 15.046337,87.098869 26.131487,96.611259 
	C30.222359,100.121727 31.501328,104.057297 31.410007,109.268166 
	C31.150293,124.087929 31.304945,138.915237 31.324894,153.739532 
	C31.334522,160.894516 31.092157,168.054276 31.805031,175.099579 
	C34.286957,167.028763 37.343735,159.056259 41.583248,151.532608 
	C45.937019,143.806183 50.927750,136.572571 56.718498,129.868103 
	C60.838638,125.097870 60.825268,125.062775 56.986794,119.800438 
	C50.154713,110.434029 46.133179,99.929611 44.876144,88.469498 
	C44.428383,84.387390 42.996029,81.228493 40.092819,78.426445 
	C22.160158,61.118626 12.316563,39.695278 8.195213,15.379485 
	C7.724612,12.602957 7.626566,9.829745 7.772652,7.383654 
	C5.232402,13.202634 4.985528,19.952429 2.612088,26.540182 
	C2.173275,27.009554 1.952359,27.151899 1.365722,27.147121 
	C1.000000,19.168621 1.098790,11.335177 0.935275,3.507214 
	C0.890587,1.367906 1.326833,0.563446 3.497569,0.975344 
	C4.301741,1.127936 5.159142,1.000000 5.992267,1.000000 
	C602.176880,1.000000 1198.361450,1.000000 1794.546021,1.000000 
	C1801.000000,1.000000 1801.000000,1.000000 1801.000000,7.542766 
	C1801.000000,9.042394 1801.000000,10.542021 1801.000000,12.520824 
	C1799.032593,14.743077 1796.608521,14.324692 1794.315552,14.329657 
	C1777.815674,14.365387 1761.315063,14.437079 1744.816650,14.284767 
	C1740.692505,14.246695 1738.083862,15.653079 1735.857666,19.199308 
	C1717.606934,48.271580 1699.123535,77.197266 1680.600708,106.097313 
	C1677.167603,111.453667 1675.836548,111.426437 1672.418579,105.784920 
	C1655.319824,77.562859 1638.125977,49.397087 1621.282349,21.023043 
	C1618.362061,16.103590 1615.060303,14.091795 1609.301025,14.224473 
	C1593.642822,14.585195 1577.970703,14.334856 1562.304199,14.365817 
	C1560.677490,14.369032 1558.591431,13.808292 1557.614502,15.306355 
	C1556.412598,17.149307 1558.187622,18.734676 1559.130005,20.214655 
	C1576.226685,47.061417 1593.624023,73.714378 1610.926758,100.428101 
	C1622.884644,118.889793 1634.773926,137.396561 1646.851318,155.780243 
	C1648.897827,158.895279 1649.372070,162.178986 1649.367432,165.749634 
	C1649.332153,193.416031 1649.341675,221.082474 1649.350830,248.748917 
	C1649.353394,256.532928 1649.459351,256.640015 1657.083252,256.648285 
	C1669.583130,256.661835 1682.083130,256.661316 1694.583008,256.648315 
	C1701.556274,256.641052 1701.644409,256.564301 1701.647461,249.752747 
	C1701.659912,222.252975 1701.717407,194.752899 1701.589722,167.253723 
	C1701.567749,162.519028 1702.872803,158.577759 1705.538208,154.700134 
	C1727.722046,122.426796 1749.518799,89.890282 1771.458130,57.450531 
	C1779.673706,45.302677 1787.939209,33.188660 1796.080933,20.990713 
	C1797.175537,19.350868 1798.098633,17.487501 1800.605225,16.917622 
	C1801.000000,155.605026 1800.979248,294.210083 1801.110107,432.814972 
	C1801.113647,436.593842 1800.121582,437.084259 1796.688721,437.082550 
	C1610.438232,436.989349 1424.187744,437.000000 1237.468628,437.000000 
	C1236.926514,436.706207 1236.852905,436.412445 1237.069092,435.769653 
	C1238.599976,434.517944 1240.068359,434.146301 1241.494995,433.704254 
	C1247.839478,431.738464 1251.399658,427.217255 1253.073120,421.027588 
	C1253.900146,417.969238 1254.469604,414.847321 1254.478516,411.656555 
	C1254.523315,395.490967 1254.495972,379.325348 1254.491455,363.159729 
	C1254.491211,362.160309 1254.438721,361.165497 1254.283081,360.172424 
	C1253.992920,358.320587 1252.767090,357.723419 1251.088989,357.717499 
	C1249.439697,357.711639 1248.140259,358.230255 1247.763672,360.052582 
	C1247.422974,361.700470 1247.504883,363.371338 1247.503906,365.035492 
	C1247.495361,378.534637 1247.482910,392.033813 1247.511108,405.532898 
	C1247.518799,409.219177 1247.177612,412.856232 1246.416260,416.454132 
	C1244.934937,423.453522 1240.453491,428.006012 1233.442871,428.250793 
	C1217.790283,428.797272 1202.113525,428.808197 1186.461304,428.242889 
	C1179.645020,427.996704 1175.150391,423.529205 1173.670410,416.851135 
	C1172.838623,413.098389 1172.476685,409.294952 1172.486694,405.439117 
	C1172.521484,392.106720 1172.502319,378.774170 1172.498535,365.441681 
	C1172.498169,364.108704 1172.497681,362.776184 1172.437378,361.443237 
	C1172.332031,359.117371 1171.424805,357.653107 1168.818726,357.701263 
	C1166.423340,357.745514 1165.682495,359.178528 1165.568481,361.253479 
	C1165.513550,362.252594 1165.501587,363.252045 1165.501587,364.251923 
	C1165.501709,379.917603 1165.515503,395.583282 1165.490601,411.248901 
	C1165.484131,415.299866 1166.190186,419.191895 1167.495850,423.013397 
	C1169.871826,429.967163 1175.569946,432.818481 1182.319824,435.125610 
	C1182.871582,435.632263 1183.052490,435.875977 1183.116699,436.559875 
	C1156.979126,437.000000 1130.958130,437.000000 1104.468628,437.000000 
	C1103.919556,436.721008 1103.839233,436.442017 1104.026855,435.820374 
	C1105.818115,434.382385 1107.685059,434.130890 1109.363525,433.415558 
	C1116.635254,430.316406 1121.690918,419.390778 1119.357056,411.938446 
	C1118.961670,410.676178 1118.308716,409.865173 1117.003540,409.728241 
	C1115.597656,409.580750 1114.331055,409.874512 1113.649414,411.303314 
	C1112.847900,412.983368 1112.719604,414.832886 1112.346680,416.621460 
	C1110.839233,423.852753 1107.115112,427.870575 1099.913208,428.151276 
	C1083.447266,428.793030 1066.952759,428.743317 1050.484009,428.167786 
	C1044.086060,427.944183 1039.145142,422.964355 1037.572876,416.706512 
	C1036.545898,412.619293 1036.433594,408.463623 1036.576172,404.300201 
	C1036.900513,394.834015 1035.599365,385.302155 1037.484253,375.904541 
	C1039.020020,368.247803 1042.844482,364.467834 1050.539673,363.609833 
	C1066.457031,361.835083 1082.423828,361.929169 1098.353271,363.483856 
	C1105.587280,364.189880 1110.385132,368.002441 1111.501587,375.596466 
	C1111.646362,376.580658 1111.924805,377.543823 1112.369751,378.452789 
	C1113.154053,380.054993 1114.497681,380.445343 1116.118896,380.205261 
	C1117.729614,379.966766 1118.168091,378.777252 1118.452148,377.376129 
	C1120.011963,369.678192 1115.380371,361.589844 1107.938354,359.047302 
	C1104.281738,357.798065 1100.463745,357.120789 1096.669189,356.967377 
	C1080.217529,356.302246 1063.723267,355.368500 1047.330444,357.507996 
	C1035.906372,358.998962 1031.155029,363.732574 1029.526245,375.063873 
	C1027.553589,388.787170 1027.937134,402.606445 1029.254028,416.380035 
	C1030.115479,425.391266 1034.712524,431.554596 1043.619873,434.168762 
	C1044.890503,434.541656 1046.177490,434.967621 1047.000122,436.572327 
	C1027.645752,437.000000 1008.291565,437.000000 988.468628,437.000000 
	C987.805298,436.743622 987.610596,436.487213 987.193298,435.802917 
	C985.567261,428.640289 985.567322,428.608948 978.592224,428.598114 
	C961.104736,428.570984 943.617126,428.633850 926.129822,428.567871 
	C918.427979,428.538788 917.511597,427.578461 917.423706,419.950409 
	C917.371948,415.454102 917.378540,410.956665 917.421082,406.460236 
	C917.496643,398.479950 918.437744,397.466248 926.295837,397.432648 
	C942.450745,397.363586 958.606018,397.416229 974.761108,397.407379 
	C976.425964,397.406494 978.093811,397.462616 979.753662,397.290070 
	C981.546692,397.103668 983.059021,396.595306 982.975586,394.339600 
	C982.902100,392.353210 981.500854,391.952576 979.922974,391.753418 
	C978.264832,391.544128 976.597595,391.594025 974.933167,391.593445 
	C959.277710,391.587952 943.622253,391.601166 927.966797,391.586548 
	C917.796143,391.577026 917.430298,391.193115 917.412170,380.806305 
	C917.406372,377.475433 917.332764,374.142578 917.448608,370.814026 
	C917.658386,364.784180 918.808716,363.523438 924.952942,363.469147 
	C942.439575,363.314697 959.927490,363.430695 977.414917,363.406067 
	C979.245483,363.403503 981.077393,363.456024 982.904602,363.247681 
	C984.792542,363.032410 986.101624,362.251312 985.968079,360.117615 
	C985.842468,358.110199 984.285095,357.894104 982.758667,357.707611 
	C981.931824,357.606598 981.096985,357.599976 980.264038,357.599335 
	C959.112549,357.582825 937.960938,357.564911 916.809570,357.611786 
	C911.135437,357.624390 910.631531,358.141327 910.614746,364.013580 
	C910.554749,384.998413 910.600830,405.983459 910.584167,426.968414 
	C910.582153,429.463623 910.714050,431.966919 910.173828,434.912659 
	C909.889832,435.662750 909.740784,435.948730 909.295898,436.617340 
	C888.312439,437.000000 867.624878,437.000000 846.468628,437.000000 
	C845.918884,436.722443 845.837830,436.444916 846.022644,435.825348 
	C847.529480,434.575165 848.991333,434.165222 850.439209,433.824097 
	C859.088013,431.786346 863.117737,425.881653 864.272583,417.504730 
	C864.615662,415.016388 864.637085,412.519135 864.507507,410.025055 
	C863.891296,398.171112 859.615051,393.890350 847.836548,392.281433 
	C838.194946,390.964478 828.548889,391.646179 818.905701,391.453033 
	C812.745789,391.329620 806.573547,391.648163 800.421509,391.367096 
	C786.872925,390.748169 784.045654,382.563293 786.120544,371.681854 
	C786.749390,368.383850 789.046692,366.145355 792.133301,364.796844 
	C793.825317,364.057617 795.614014,363.550537 797.428528,363.384827 
	C812.875122,361.974548 828.341797,362.134949 843.788696,363.246429 
	C849.924194,363.687866 853.999634,366.972595 855.026672,373.375183 
	C855.442139,375.964844 856.511902,377.873871 859.619263,377.251038 
	C862.982971,376.576782 862.387146,373.998688 862.104980,371.709808 
	C861.049988,363.152252 857.491943,359.321808 848.916992,357.833374 
	C844.003906,356.980530 839.061157,356.242706 834.025085,356.416412 
	C821.558838,356.846375 809.047668,355.530334 796.615723,357.423492 
	C793.973022,357.825897 791.367859,358.336487 788.821777,359.144226 
	C787.063782,359.701935 785.376587,360.438660 783.911560,361.560516 
	C776.577637,367.176270 776.924988,375.168518 777.781555,383.007233 
	C778.538757,389.935699 782.646362,394.590363 789.545105,396.330078 
	C795.372437,397.799591 801.332947,398.512054 807.342651,398.547668 
	C819.000488,398.616791 830.659302,398.499908 842.316956,398.591766 
	C852.066956,398.668579 856.455017,402.602509 857.166321,411.654694 
	C857.869873,420.608032 853.144104,426.968262 844.157898,428.169769 
	C828.418640,430.274261 812.611877,430.210083 796.862610,428.197327 
	C789.246521,427.224030 785.932983,423.691162 784.694641,415.868164 
	C784.282715,413.265961 783.713501,411.277649 780.508850,411.612152 
	C777.435059,411.932983 777.503113,414.224548 777.487976,416.426910 
	C777.428711,425.081116 781.139404,430.379761 789.355591,433.456238 
	C791.055115,434.092621 792.902893,434.491486 794.009399,436.573730 
	C740.312439,437.000000 686.624878,437.000000 632.468628,437.000000 
	C631.608826,436.486969 631.489197,435.917358 631.916382,434.928070 
	C633.914917,433.410889 635.978149,433.372070 637.895813,432.866699 
	C646.506409,430.597626 651.790894,425.171722 653.160706,416.343353 
	C655.267090,402.767822 655.340393,389.133331 653.134583,375.574463 
	C651.709106,366.811920 646.399414,361.240509 637.660767,359.294647 
	C632.625244,358.173340 627.512451,357.474487 622.318115,357.482361 
	C604.169556,357.509888 586.020996,357.482544 567.872437,357.498413 
	C560.737122,357.504639 560.509766,357.713074 560.501587,364.703003 
	C560.477051,385.682037 560.497681,406.661102 560.486816,427.640167 
	C560.485657,429.968475 560.605347,432.303864 560.116089,435.056213 
	C559.847168,435.755676 559.699951,436.019226 559.276367,436.641357 
z"/>
<path fill="#101A23" opacity="1.000000" stroke="none" 
	d="
M1801.000000,16.600004 
	C1791.992310,28.488127 1784.359253,40.929165 1776.161987,52.975605 
	C1752.772217,87.348526 1729.570068,121.849129 1706.191895,156.230072 
	C1704.034546,159.403030 1703.070679,162.520615 1703.089111,166.378510 
	C1703.227051,195.198700 1703.071655,224.020508 1703.265869,252.840057 
	C1703.294434,257.077606 1702.081299,258.011475 1697.996582,257.939545 
	C1683.007690,257.675751 1668.008789,257.684662 1653.019775,257.946106 
	C1649.092285,258.014648 1648.397949,256.727875 1648.414429,253.154373 
	C1648.548340,224.000946 1648.452393,194.846512 1648.541138,165.692719 
	C1648.551270,162.392807 1647.793091,159.634003 1645.980957,156.846252 
	C1616.627197,111.686844 1587.357300,66.473007 1558.069458,21.270704 
	C1557.436890,20.294365 1556.787354,19.326954 1556.200684,18.323286 
	C1553.768799,14.163005 1554.288696,13.173026 1559.026001,13.167334 
	C1577.351440,13.145311 1595.677612,13.246001 1614.001465,13.074633 
	C1617.157227,13.045118 1618.650024,14.279012 1620.167725,16.805998 
	C1638.134766,46.720963 1656.216064,76.567383 1674.274292,106.427498 
	C1674.949951,107.544655 1675.697754,108.618080 1676.596191,109.994133 
	C1689.494507,89.734749 1702.254517,69.688606 1715.019165,49.645557 
	C1721.985596,38.707054 1729.055420,27.832403 1735.864502,16.796930 
	C1737.551025,14.063506 1739.334961,13.040186 1742.598022,13.069584 
	C1761.754517,13.242161 1780.913574,13.146253 1800.535889,13.070431 
	C1801.000000,14.066669 1801.000000,15.133339 1801.000000,16.600004 
z"/>
<path fill="#6399AF" opacity="1.000000" stroke="none" 
	d="
M1.747246,27.337612 
	C3.104401,18.808010 4.667511,10.772307 8.442193,1.975360 
	C9.484207,27.875256 17.729259,49.706909 33.008965,68.857834 
	C35.595127,72.099220 38.443855,75.237160 41.633427,77.861122 
	C44.796478,80.463264 45.606701,83.579628 46.052429,87.382393 
	C47.595150,100.544228 51.975986,112.596901 61.038860,122.597115 
	C62.052822,123.715935 63.251286,124.457581 61.634701,126.204811 
	C47.320930,141.675385 36.876488,159.362885 31.316238,179.930954 
	C29.825573,176.043182 30.409700,172.101471 30.386845,168.267517 
	C30.264660,147.772507 30.275103,127.276138 30.379555,106.780952 
	C30.395987,103.556717 29.613478,101.345352 26.936646,99.170425 
	C12.249131,87.236816 4.607671,71.373177 1.953379,52.459869 
	C1.054222,48.976463 1.772016,45.823135 1.228975,42.360600 
	C1.000000,40.611111 1.000000,39.222221 1.000000,37.416664 
	C2.105404,33.962692 1.201568,30.804487 1.747246,27.337612 
z"/>
<path fill="#669AAF" opacity="1.000000" stroke="none" 
	d="
M794.468628,437.000000 
	C793.129944,435.445068 791.403381,435.581696 790.062866,435.262878 
	C777.033203,432.163788 775.455017,421.553436 776.220703,412.102570 
	C776.548218,408.059784 780.142334,410.325623 782.241394,409.934845 
	C783.896423,409.626709 786.164307,409.314941 786.007874,412.328918 
	C785.964783,413.158966 786.014282,413.994507 786.037109,414.827118 
	C786.230652,421.909088 789.176758,425.904388 796.234985,426.782227 
	C812.480774,428.802673 828.826843,428.860413 845.043396,426.681091 
	C854.613464,425.394989 859.456055,411.499390 853.517029,403.824463 
	C851.141602,400.754669 847.731689,400.010651 844.164917,399.968872 
	C831.172852,399.816742 818.179321,399.793518 805.186768,399.677155 
	C799.855530,399.629425 794.544250,399.225830 789.359253,397.904694 
	C782.660645,396.197845 778.207825,392.157410 776.703125,385.239777 
	C775.442932,379.446289 775.359802,373.610901 777.291321,367.993347 
	C780.219299,359.477753 787.567322,356.971252 795.416748,356.155426 
	C812.842041,354.344360 830.333801,354.435669 847.762329,356.124023 
	C858.578491,357.171783 863.945251,363.793549 863.940735,374.615814 
	C863.939514,377.571136 863.038635,379.186127 859.966980,378.655121 
	C857.658325,378.256042 854.214539,380.546539 853.832458,375.408447 
	C853.262817,367.750397 851.431335,365.470886 843.847656,364.814209 
	C827.763794,363.421478 811.594971,363.087250 795.527344,365.126678 
	C789.209595,365.928558 786.837280,369.532654 786.696289,376.423584 
	C786.537292,384.194794 788.687317,387.459198 795.045837,389.208191 
	C799.779419,390.510193 804.632690,390.159943 809.445190,390.285461 
	C822.422974,390.623993 835.413635,389.759277 848.388611,390.909241 
	C859.222534,391.869476 863.968140,395.978027 865.617920,406.667175 
	C866.437561,411.977844 866.179077,417.307037 864.762207,422.515900 
	C862.289856,431.605591 855.242798,434.713593 846.476074,436.065857 
	C843.659302,436.950226 841.142822,436.220367 838.344360,436.769470 
	C823.645752,437.000000 809.291565,437.000000 794.468628,437.000000 
z"/>
<path fill="#669AAF" opacity="1.000000" stroke="none" 
	d="
M297.297699,436.263458 
	C283.438293,433.481842 277.229309,426.540771 277.044800,412.816803 
	C276.870514,399.851013 275.713348,386.808685 277.873627,373.927063 
	C279.677002,363.173767 285.316498,357.381165 295.980377,356.294617 
	C316.555786,354.198120 337.232300,354.236053 357.811584,356.251099 
	C369.038361,357.350403 375.099579,363.408844 376.489075,375.646606 
	C378.046844,389.366364 377.865479,403.291260 376.526917,417.045349 
	C375.468567,427.919952 368.842133,434.396301 357.448608,436.057007 
	C353.981079,436.924377 350.827698,436.238403 347.360779,436.771027 
	C332.645782,437.000000 318.291534,437.000000 303.468658,437.000000 
	C301.306610,435.930359 299.417114,436.761780 297.297699,436.263458 
z"/>
<path fill="#669AAF" opacity="1.000000" stroke="none" 
	d="
M50.468658,437.000000 
	C33.012009,433.224091 30.230062,420.443665 30.318743,405.883026 
	C30.374498,396.728088 30.245930,387.580261 30.865658,378.421783 
	C31.845562,363.940521 37.774536,357.036255 52.357323,355.961761 
	C71.111900,354.579834 89.968994,353.622528 108.621338,356.988220 
	C119.435921,358.939667 125.652077,369.022125 123.690636,379.803589 
	C122.992760,383.639679 120.115280,381.853027 118.142349,382.060883 
	C116.360565,382.248566 114.304176,382.837982 113.887856,379.551636 
	C112.435081,368.083710 109.781784,364.804199 98.768517,364.410767 
	C83.983299,363.882568 69.121490,363.253876 54.346153,364.889008 
	C46.070694,365.804779 42.080425,370.012207 41.883949,378.357819 
	C41.605606,390.180969 41.616024,402.021698 41.920803,413.844116 
	C42.127441,421.859589 46.705891,426.599701 54.760735,426.964050 
	C70.408089,427.671753 86.086075,427.653687 101.733406,426.977448 
	C110.661186,426.591583 114.577133,422.257416 114.815247,412.668976 
	C114.917702,408.543243 116.636078,408.337982 119.920616,408.188538 
	C123.680435,408.017456 124.757423,409.887817 124.490959,412.879852 
	C124.023239,418.131836 124.297951,423.549225 121.208221,428.311768 
	C118.032677,433.206482 113.321136,435.218170 107.468323,436.078308 
	C105.648216,436.868011 104.085396,436.271606 102.304382,436.774475 
	C84.979103,437.000000 67.958214,437.000000 50.468658,437.000000 
z"/>
<path fill="#669AAF" opacity="1.000000" stroke="none" 
	d="
M1047.468628,437.000000 
	C1046.908081,436.861206 1046.845581,436.640625 1046.719971,436.595276 
	C1031.093140,430.951660 1027.265259,425.895111 1027.180054,409.170197 
	C1027.125977,398.535339 1026.357422,387.862946 1027.782349,377.253113 
	C1029.788452,362.315247 1034.329102,357.111206 1049.234253,355.939331 
	C1067.784180,354.480804 1086.443848,353.797150 1104.963379,356.830383 
	C1119.122559,359.149475 1120.472290,370.024689 1120.109009,379.863892 
	C1119.999756,382.819519 1117.691528,382.249481 1116.070923,382.058411 
	C1114.257812,381.844666 1111.775269,383.573242 1110.839722,380.080353 
	C1106.941040,365.525055 1104.969482,363.971130 1089.560791,364.181183 
	C1076.593140,364.357971 1063.596680,363.282013 1050.658203,364.889038 
	C1043.526489,365.774841 1039.624390,369.096008 1038.842041,376.220398 
	C1037.405518,389.300354 1037.360229,402.463043 1038.857666,415.541840 
	C1039.665894,422.601562 1044.097900,426.646851 1051.179810,426.953186 
	C1066.981812,427.636658 1082.807983,427.632904 1098.609741,426.971375 
	C1106.814697,426.627869 1109.805908,423.137634 1111.374268,415.020752 
	C1111.806519,412.783417 1109.821899,408.898041 1114.450195,408.311523 
	C1120.311157,407.568817 1121.025269,408.139038 1121.020386,414.066620 
	C1121.009399,427.496368 1116.507935,433.618042 1104.484375,436.066162 
	C1102.662964,436.871857 1101.093994,436.270172 1099.305908,436.774170 
	C1081.979126,437.000000 1064.958130,437.000000 1047.468628,437.000000 
z"/>
<path fill="#659AAF" opacity="1.000000" stroke="none" 
	d="
M440.264221,436.278992 
	C428.041473,434.209259 421.659058,427.809601 421.251648,415.149780 
	C420.651978,396.515778 421.037231,377.850189 420.996643,359.198059 
	C420.985291,353.974457 424.961243,356.665558 427.212830,356.162720 
	C430.192780,355.497192 431.224274,356.924927 431.197540,360.006500 
	C431.064636,375.327576 431.124451,390.650452 431.154968,405.972626 
	C431.159271,408.129761 431.250305,410.302002 431.514832,412.440826 
	C432.930206,423.884888 436.736786,427.237732 448.481537,427.291870 
	C460.805664,427.348663 473.130463,427.351990 485.454590,427.292450 
	C498.155609,427.231110 502.727478,422.658234 502.827606,409.620209 
	C502.951691,393.466187 503.017303,377.307953 502.754974,361.157257 
	C502.684113,356.796082 504.210938,355.963776 508.174774,355.967560 
	C512.043213,355.971222 513.300232,356.951935 513.238220,360.985535 
	C512.969604,378.468384 513.256226,395.960480 512.925354,413.441376 
	C512.674866,426.679871 506.749481,433.731964 494.505920,436.097656 
	C491.346954,436.931396 488.503479,436.223419 485.355133,436.770477 
	C471.979095,437.000000 458.958221,437.000000 445.468658,437.000000 
	C443.637024,435.989594 442.057709,436.718048 440.264221,436.278992 
z"/>
<path fill="#6699AE" opacity="1.000000" stroke="none" 
	d="
M1183.311035,436.274933 
	C1170.773926,433.881714 1164.649536,427.771118 1164.230957,415.191162 
	C1163.610962,396.559601 1163.938965,377.896393 1163.874634,359.246613 
	C1163.856934,354.110382 1167.800537,356.630371 1170.088623,356.162109 
	C1172.932739,355.580078 1174.232544,356.674255 1174.203125,359.901031 
	C1174.062134,375.387177 1174.143188,390.875336 1174.148438,406.362793 
	C1174.154297,423.482117 1177.919312,427.296509 1194.834961,427.306000 
	C1205.826050,427.312195 1216.817139,427.322754 1227.808228,427.298615 
	C1241.145752,427.269348 1245.724854,422.773376 1245.824219,409.225006 
	C1245.941528,393.238861 1245.996948,377.248932 1245.754028,361.265594 
	C1245.690308,357.068207 1246.930542,356.028259 1251.048218,355.947601 
	C1255.507080,355.860229 1256.152954,357.543518 1256.106689,361.440430 
	C1255.911377,377.924744 1256.041260,394.412750 1256.017456,410.899353 
	C1256.009888,416.105957 1255.206787,421.193970 1252.933838,425.922058 
	C1249.914795,432.202026 1244.509033,435.070160 1237.491455,436.093079 
	C1234.997681,436.902039 1232.802490,436.248322 1230.333740,436.768860 
	C1217.645752,437.000000 1205.291504,437.000000 1192.468628,437.000000 
	C1189.293701,435.893127 1186.454468,436.783417 1183.311035,436.274933 
z"/>
<path fill="#EAFFFF" opacity="1.000000" stroke="none" 
	d="
M909.468628,437.000000 
	C909.014648,436.798615 909.029297,436.597260 909.077026,436.094818 
	C910.770996,434.369202 912.812317,434.417236 914.798218,434.412720 
	C937.260132,434.361572 959.722107,434.365753 982.184021,434.406891 
	C983.846680,434.409943 985.520020,434.443970 987.470947,435.487640 
	C987.896973,435.985016 987.922119,436.187531 987.973633,436.695007 
	C961.979126,437.000000 935.958191,437.000000 909.468628,437.000000 
z"/>
<path fill="#EAFFFF" opacity="1.000000" stroke="none" 
	d="
M559.468628,437.000000 
	C559.002136,436.827698 559.004333,436.655396 559.014771,436.224731 
	C560.640381,434.497681 562.660645,434.438171 564.661011,434.422272 
	C586.291321,434.250214 607.923401,434.616821 629.553223,434.221832 
	C630.224182,434.209564 630.867188,434.404938 631.745483,435.100403 
	C632.025940,435.847412 632.024353,436.176727 632.003174,436.752991 
	C607.979126,437.000000 583.958191,437.000000 559.468628,437.000000 
z"/>
<path fill="#EAFFFF" opacity="1.000000" stroke="none" 
	d="
M168.468658,437.000000 
	C168.001770,436.829498 168.003540,436.659027 168.011185,436.232849 
	C169.781586,434.386322 171.980240,434.409851 174.135712,434.404785 
	C193.732712,434.358795 213.329803,434.358734 232.926819,434.403229 
	C234.752838,434.407379 236.592316,434.436279 238.625916,435.703918 
	C238.990326,436.047028 238.996613,436.523499 238.998306,436.761749 
	C215.645767,437.000000 192.291550,437.000000 168.468658,437.000000 
z"/>
<path fill="#A9D4E3" opacity="1.000000" stroke="none" 
	d="
M347.454102,437.000000 
	C349.909851,435.343628 353.115814,436.358673 356.614929,436.039948 
	C357.062164,436.096100 356.982574,436.544708 356.991272,436.772339 
	C353.969391,437.000000 350.938812,437.000000 347.454102,437.000000 
z"/>
<path fill="#A9D4E3" opacity="1.000000" stroke="none" 
	d="
M1.703061,26.982235 
	C1.800544,30.099672 1.664837,33.246250 1.264565,36.696411 
	C1.000000,33.969406 1.000000,30.938814 1.000000,27.454109 
	C1.000000,27.000000 1.469870,27.011374 1.703061,26.982235 
z"/>
<path fill="#A9D4E3" opacity="1.000000" stroke="none" 
	d="
M1.000000,42.454109 
	C2.656795,44.904655 1.604501,48.114265 1.976712,51.604111 
	C1.922611,52.050793 1.462699,52.000088 1.231349,52.000046 
	C1.000000,48.969406 1.000000,45.938812 1.000000,42.454109 
z"/>
<path fill="#A9D4E3" opacity="1.000000" stroke="none" 
	d="
M1182.966064,436.325073 
	C1185.748291,436.227631 1188.571289,436.352692 1191.697266,436.738892 
	C1189.299927,437.000000 1186.599976,437.000000 1183.449951,437.000000 
	C1183.000000,437.000000 1183.007080,436.547577 1182.966064,436.325073 
z"/>
<path fill="#A9D4E3" opacity="1.000000" stroke="none" 
	d="
M485.449982,437.000000 
	C487.588837,435.396576 490.488220,436.353973 493.672607,436.065491 
	C494.116394,436.128845 494.028687,436.560486 494.014343,436.780243 
	C491.299988,437.000000 488.599976,437.000000 485.449982,437.000000 
z"/>
<path fill="#A9D4E3" opacity="1.000000" stroke="none" 
	d="
M838.444153,437.000000 
	C840.228149,435.393829 842.811157,436.309631 845.650696,436.041962 
	C846.081909,436.099854 845.994141,436.545654 845.997070,436.772827 
	C843.629456,437.000000 841.258850,437.000000 838.444153,437.000000 
z"/>
<path fill="#A9D4E3" opacity="1.000000" stroke="none" 
	d="
M1230.437500,437.000000 
	C1231.894165,435.456757 1234.160156,436.248718 1236.681396,436.065399 
	C1237.101929,436.127686 1237.020630,436.560272 1237.010254,436.780151 
	C1234.958374,437.000000 1232.916626,437.000000 1230.437500,437.000000 
z"/>
<path fill="#A9D4E3" opacity="1.000000" stroke="none" 
	d="
M296.986389,436.308105 
	C298.805054,435.931976 300.661041,435.776001 302.731476,436.721069 
	C301.285645,437.000000 299.571289,437.000000 297.428467,437.000000 
	C297.000000,437.000000 297.023193,436.536957 296.986389,436.308105 
z"/>
<path fill="#A9D4E3" opacity="1.000000" stroke="none" 
	d="
M439.966064,436.327026 
	C441.471802,435.928833 443.013611,435.803101 444.751282,436.713745 
	C443.611115,437.000000 442.222198,437.000000 440.416656,437.000000 
	C440.000000,437.000000 440.005646,436.549042 439.966064,436.327026 
z"/>
<path fill="#A9D4E3" opacity="1.000000" stroke="none" 
	d="
M102.416664,437.000000 
	C103.156258,435.492523 104.826172,436.161224 106.687042,436.046936 
	C107.077240,436.108124 106.995689,436.550354 106.997849,436.775177 
	C105.611107,437.000000 104.222221,437.000000 102.416664,437.000000 
z"/>
<path fill="#A9D4E3" opacity="1.000000" stroke="none" 
	d="
M1099.416626,437.000000 
	C1100.154663,435.466980 1101.836670,436.164734 1103.703491,436.043030 
	C1104.096680,436.105072 1104.005127,436.547882 1104.002563,436.773926 
	C1102.611084,437.000000 1101.222168,437.000000 1099.416626,437.000000 
z"/>
<path fill="#111B24" opacity="1.000000" stroke="none" 
	d="
M531.156433,185.999939 
	C531.156311,129.841232 531.212280,74.182365 531.048157,18.524147 
	C531.035217,14.136027 532.032837,12.912674 536.496338,13.039000 
	C548.651489,13.383011 560.826233,13.317944 572.985718,13.059873 
	C576.738831,12.980217 578.969849,14.193701 581.249268,17.143171 
	C618.915833,65.882294 656.711548,114.521629 694.479187,163.182678 
	C695.151917,164.049408 695.834167,164.908737 697.481079,167.005203 
	C697.481079,163.865356 697.481018,162.139618 697.481079,160.413879 
	C697.483093,113.087318 697.558350,65.760468 697.369934,18.434660 
	C697.351746,13.875818 698.657410,12.971951 702.934570,13.048666 
	C718.094238,13.320572 733.262878,13.258674 748.425293,13.081911 
	C751.840759,13.042092 752.929138,13.844797 752.924255,17.447004 
	C752.817993,96.102280 752.822449,174.757751 752.913025,253.413055 
	C752.916992,256.806061 752.185242,258.001251 748.555969,257.928894 
	C736.729004,257.693176 724.884705,257.560852 713.067200,257.970551 
	C707.727661,258.155670 704.391602,256.517181 701.092041,252.233246 
	C667.772644,208.972534 634.218567,165.892532 600.724731,122.766212 
	C596.364258,117.151695 591.971741,111.562035 587.202881,105.460396 
	C586.121826,108.002129 586.524048,110.122734 586.523132,112.144363 
	C586.502258,158.970978 586.460876,205.797760 586.607422,252.623947 
	C586.619995,256.639618 585.807007,258.024902 581.507385,257.948883 
	C566.181091,257.677917 550.845642,257.736053 535.516907,257.927521 
	C532.006714,257.971313 531.051086,257.000732 531.075989,253.489014 
	C531.234497,231.160263 531.156494,208.829834 531.156433,185.999939 
z"/>
<path fill="#111B24" opacity="1.000000" stroke="none" 
	d="
M953.141113,252.106232 
	C940.745422,255.940369 928.384949,257.690094 915.885376,257.767883 
	C882.405457,257.976196 848.923218,257.782928 815.442627,257.929169 
	C811.650513,257.945709 810.380859,257.154907 810.387512,253.077087 
	C810.516113,174.787781 810.519775,96.498154 810.388123,18.208860 
	C810.380981,13.983513 811.542114,13.030359 815.652527,13.053649 
	C847.633667,13.234858 879.617310,12.990814 911.597900,13.212041 
	C933.604919,13.364274 954.979736,16.980885 974.692566,27.413216 
	C1001.090698,41.383511 1018.214966,63.165024 1026.392944,91.616867 
	C1036.631714,127.238777 1034.877930,162.405197 1019.033020,196.208313 
	C1005.733521,224.580948 983.461365,242.913818 953.141113,252.106232 
z"/>
<path fill="#101A23" opacity="1.000000" stroke="none" 
	d="
M1249.002930,257.842163 
	C1236.673828,260.171295 1229.477905,254.915268 1222.325562,245.398209 
	C1194.324951,208.140289 1165.309082,171.645233 1136.675903,134.862518 
	C1135.966675,133.951614 1135.319702,132.992264 1134.643555,132.055298 
	C1135.636230,130.403152 1137.117310,131.211197 1138.267822,131.207062 
	C1157.095947,131.139328 1175.927246,131.357407 1194.751831,131.087448 
	C1212.786621,130.828842 1226.191650,118.564369 1228.241821,101.049294 
	C1230.341553,83.111778 1219.163696,66.071220 1202.370361,61.647339 
	C1198.326538,60.582039 1194.192871,60.169437 1190.015503,60.169357 
	C1172.353394,60.169018 1154.688477,60.344585 1137.031250,60.051353 
	C1132.203979,59.971195 1130.681274,60.908371 1130.700073,66.162552 
	C1130.920898,128.145706 1130.801636,190.129990 1130.932495,252.113647 
	C1130.941528,256.439697 1130.192871,258.088409 1125.349854,257.973358 
	C1110.195679,257.613312 1095.026611,257.757080 1079.865479,257.911865 
	C1076.851074,257.942657 1075.920654,257.253204 1075.924316,254.089767 
	C1076.015137,175.110336 1076.017822,96.130760 1075.916870,17.151360 
	C1075.912476,13.768473 1076.956909,13.082655 1080.115967,13.091147 
	C1117.939209,13.192833 1155.765381,12.894006 1193.585449,13.253445 
	C1216.063843,13.467077 1237.104614,18.988369 1254.640137,34.026226 
	C1275.335571,51.774094 1283.601929,74.754005 1282.401367,101.554108 
	C1281.606445,119.300224 1277.113770,135.696045 1264.685303,149.102921 
	C1255.917358,158.561066 1245.048340,164.892365 1233.325562,169.911118 
	C1231.216064,170.814209 1229.057861,171.603394 1226.885498,172.459579 
	C1227.220947,174.744446 1228.960327,175.973114 1230.183716,177.454880 
	C1250.005371,201.463287 1269.885254,225.423569 1289.750610,249.395859 
	C1290.494263,250.293198 1291.164917,251.259033 1291.972412,252.093506 
	C1293.316650,253.482910 1293.303711,255.226440 1292.847534,256.772003 
	C1292.249146,258.799561 1290.292969,257.782990 1288.992188,257.791229 
	C1275.829346,257.874359 1262.665649,257.842041 1249.002930,257.842163 
z"/>
<path fill="#111B24" opacity="1.000000" stroke="none" 
	d="
M462.996887,207.156189 
	C468.597748,207.478943 475.407104,204.971344 478.314636,208.190933 
	C480.840515,210.987976 479.126740,217.682083 479.152069,222.654617 
	C479.204651,232.984039 479.064178,243.315582 479.231323,253.642563 
	C479.281372,256.735413 478.688324,257.931122 475.197266,257.924347 
	C415.718567,257.808899 356.239532,257.815186 296.760803,257.919067 
	C293.586334,257.924622 292.929810,256.984253 292.932739,253.993332 
	C293.010437,175.021317 293.018738,96.049187 292.911194,17.077242 
	C292.906433,13.585322 294.131104,13.090342 297.183624,13.094631 
	C354.663177,13.175405 412.142975,13.196874 469.622345,13.062518 
	C473.440430,13.053594 474.325714,14.074054 474.263153,17.773714 
	C474.032196,31.431660 473.989288,45.099674 474.278870,58.755356 
	C474.366302,62.878685 472.990997,63.602898 469.245331,63.590672 
	C430.426117,63.464043 391.606354,63.494846 352.786743,63.526043 
	C345.558594,63.531853 346.562347,62.726448 346.530548,70.005539 
	C346.478851,81.834457 346.740448,93.670090 346.403198,105.489571 
	C346.282043,109.736618 347.899384,110.231918 351.485962,110.221512 
	C388.305969,110.114616 425.126801,110.231606 461.946228,110.051697 
	C466.119171,110.031311 467.200165,111.078056 467.109467,115.223236 
	C466.825256,128.212418 466.874603,141.213959 467.092651,154.205719 
	C467.151794,157.727722 466.158264,158.606110 462.684143,158.594040 
	C425.864258,158.466034 389.043457,158.585556 352.223907,158.416672 
	C347.818909,158.396469 346.253876,159.298798 346.390533,164.064682 
	C346.758057,176.882965 346.662018,189.721329 346.427307,202.545822 
	C346.360077,206.219879 347.207214,207.267136 351.037720,207.250534 
	C388.190521,207.089386 425.344269,207.155167 462.996887,207.156189 
z"/>
<path fill="#101A23" opacity="1.000000" stroke="none" 
	d="
M1403.573730,67.541397 
	C1411.289673,50.394180 1418.866699,33.597553 1426.275146,16.726906 
	C1427.439453,14.075531 1428.799805,13.053801 1431.809448,13.082684 
	C1448.967529,13.247348 1466.128784,13.236221 1483.287109,13.082484 
	C1486.396118,13.054628 1487.864258,13.988548 1489.167480,16.903200 
	C1523.373657,93.404388 1557.703247,169.850388 1592.009033,246.307053 
	C1593.629150,249.917664 1595.224121,253.539520 1597.135498,257.842041 
	C1588.673584,257.842041 1580.779297,257.842072 1572.884888,257.842041 
	C1562.722290,257.842041 1552.554565,257.656647 1542.400024,257.940918 
	C1538.767212,258.042603 1537.195679,256.759430 1535.892578,253.514236 
	C1531.378662,242.271667 1526.434082,231.202423 1521.875366,219.977051 
	C1520.632202,216.915466 1519.045776,215.897934 1515.648804,215.911026 
	C1476.831787,216.060760 1438.013916,216.047256 1399.196655,215.925873 
	C1396.066528,215.916092 1394.498169,216.781723 1393.306396,219.710587 
	C1388.679199,231.083511 1383.692871,242.310257 1379.061523,253.681580 
	C1377.842773,256.674133 1376.462402,257.993134 1372.948730,257.944641 
	C1356.291992,257.714752 1339.627686,257.675812 1322.972168,257.946350 
	C1318.184814,258.024109 1318.726440,256.452606 1320.185791,253.209839 
	C1340.212402,208.712494 1360.167236,164.182877 1380.140381,119.661469 
	C1387.885864,102.396500 1395.633057,85.132225 1403.573730,67.541397 
z"/>
<path fill="#111B23" opacity="1.000000" stroke="none" 
	d="
M176.966934,78.149551 
	C161.853195,63.463387 146.699951,61.498631 128.357574,71.740852 
	C117.997368,77.525902 112.185890,76.750946 103.204720,68.751640 
	C82.066208,49.924133 60.145634,32.093376 36.089088,16.512293 
	C35.438423,15.543336 35.255936,14.802762 35.753029,13.675385 
	C66.657097,13.296949 97.310081,13.207587 127.963120,13.167212 
	C138.452591,13.153394 148.928436,13.180033 159.418594,13.921831 
	C208.935852,17.423386 243.388153,57.511822 239.246216,107.026314 
	C237.078690,132.937897 227.852890,155.253128 206.253998,171.077530 
	C190.595703,182.549561 172.601791,187.721207 153.492310,188.353760 
	C132.523071,189.047867 111.519386,188.863419 90.532707,188.735229 
	C86.204063,188.708786 84.980896,189.650757 85.046013,194.146362 
	C85.330750,213.804779 85.083893,233.470367 85.247459,253.131546 
	C85.276894,256.669861 84.685204,258.021576 80.698280,257.951111 
	C65.539528,257.683289 50.371719,257.728912 35.210835,257.927704 
	C31.623049,257.974731 30.238344,257.287872 30.391020,253.350845 
	C30.971088,238.392807 29.442875,223.362778 31.896065,208.466034 
	C35.879169,184.279053 52.234608,168.853317 76.786331,165.965210 
	C85.376381,164.954727 93.869064,163.441895 102.270393,161.273315 
	C122.318138,156.098587 137.553192,144.693588 147.963486,126.814354 
	C150.918930,121.738510 154.784836,117.443756 158.939758,113.304108 
	C166.660477,105.611763 175.450485,103.779236 185.924957,106.507355 
	C200.673630,110.348694 214.321930,116.760612 228.362335,123.235771 
	C229.051071,123.294250 229.485779,123.545067 229.701416,123.255463 
	C230.096008,122.725548 229.818542,123.514587 229.492477,122.700577 
	C216.429276,113.831360 203.363434,105.140587 190.143570,96.690765 
	C185.734985,93.872910 181.700150,91.126358 180.722397,85.442978 
	C180.431213,83.750404 179.077866,82.240555 178.157898,80.303642 
	C178.003403,79.310791 177.706406,78.761391 176.966934,78.149551 
z"/>
<path fill="#679BB0" opacity="1.000000" stroke="none" 
	d="
M1304.434692,356.127289 
	C1324.055176,356.115326 1343.216675,356.100128 1362.378296,356.119385 
	C1367.718628,356.124756 1372.992920,356.773102 1378.208252,357.942871 
	C1384.605469,359.377747 1388.544067,363.367554 1389.541504,369.735199 
	C1390.547974,376.161407 1390.343994,382.695740 1389.664795,389.165161 
	C1388.973755,395.745911 1384.183105,398.552490 1378.056152,400.515228 
	C1386.691650,403.289551 1389.387207,409.281982 1389.065063,417.309479 
	C1388.858154,422.466522 1388.852661,427.645813 1389.074097,432.801514 
	C1389.261719,437.172913 1386.214233,435.990784 1383.997681,435.992371 
	C1381.786743,435.993988 1378.732422,437.199188 1378.931030,432.813721 
	C1379.156860,427.825470 1379.038818,422.817810 1378.958496,417.820374 
	C1378.818726,409.111359 1375.799561,405.745361 1367.010742,405.133606 
	C1361.369629,404.740967 1355.686646,404.909851 1350.022339,404.896210 
	C1338.692017,404.868927 1327.359985,404.997803 1316.032471,404.822266 
	C1312.717529,404.770905 1311.747803,405.885223 1311.828979,409.104614 
	C1312.022217,416.764313 1311.627930,424.444397 1311.983154,432.092468 
	C1312.204834,436.863342 1309.243652,435.986664 1306.516724,436.060913 
	C1303.602661,436.140198 1301.148560,436.483673 1301.192505,431.921356 
	C1301.421021,408.096558 1301.297607,384.268433 1301.319458,360.441467 
	C1301.321167,358.513092 1300.840820,356.179810 1304.434692,356.127289 
z"/>
<path fill="#6599AE" opacity="1.000000" stroke="none" 
	d="
M632.425293,435.419434 
	C607.998718,436.581848 583.973755,435.745636 559.489502,435.979462 
	C558.968079,410.516998 558.921509,385.067596 558.842224,359.618317 
	C558.835876,357.566589 559.073547,356.065704 561.724060,356.105042 
	C584.667847,356.445648 607.664307,354.942108 630.546387,356.828613 
	C648.504456,358.309143 654.415955,364.651367 655.481445,382.233643 
	C656.092651,392.320587 656.297241,402.511688 655.166077,412.623352 
	C653.524109,427.301208 647.301392,433.575134 632.425293,435.419434 
z"/>
<path fill="#6699AE" opacity="1.000000" stroke="none" 
	d="
M987.874023,435.342712 
	C961.921936,435.830719 935.972107,435.878998 909.566223,435.860535 
	C909.113647,410.797852 909.196899,385.801422 909.034851,360.806580 
	C909.010498,357.057648 910.034180,356.000244 913.783691,356.027222 
	C936.945312,356.193878 960.109497,356.205139 983.270996,356.033081 
	C987.114868,356.004517 988.004822,357.229431 988.021118,360.874542 
	C988.037781,364.601868 986.554688,365.212769 983.297241,365.193268 
	C963.634521,365.075623 943.968262,365.303375 924.309082,365.014618 
	C919.696289,364.946869 918.625793,366.398956 918.927979,370.638245 
	C919.282532,375.612213 919.234985,380.643921 918.939148,385.625488 
	C918.727234,389.195038 919.966431,390.084595 923.426331,390.055420 
	C942.255188,389.896606 961.086121,389.978302 979.916382,389.987000 
	C984.624817,389.989166 986.645447,393.126556 984.928650,397.629913 
	C984.051025,399.931854 982.114685,398.969818 980.657349,398.975006 
	C961.993958,399.041412 943.328369,399.159821 924.668091,398.906372 
	C920.161316,398.845123 918.555969,399.960480 918.908691,404.623657 
	C919.334778,410.257172 919.251282,415.961334 918.928040,421.608582 
	C918.697144,425.641937 919.790344,427.012451 924.078186,426.957672 
	C942.738708,426.719299 961.404053,426.858795 980.067688,426.862671 
	C987.881775,426.864288 987.881775,426.866119 987.874023,435.342712 
z"/>
<path fill="#679AAF" opacity="1.000000" stroke="none" 
	d="
M1678.637085,381.637573 
	C1672.555176,387.835236 1666.815308,393.877747 1660.841187,399.678864 
	C1658.742920,401.716370 1657.916260,403.793823 1657.970093,406.679047 
	C1658.128540,415.174469 1657.778809,423.684784 1658.123291,432.169189 
	C1658.319824,437.010620 1655.295532,436.044983 1652.626709,436.016846 
	C1650.002319,435.989227 1646.837524,437.110413 1647.033936,432.227448 
	C1647.348389,424.408264 1646.839111,416.553467 1647.222534,408.740479 
	C1647.448242,404.140015 1645.799927,401.083374 1642.622437,397.912445 
	C1629.891968,385.208649 1617.449097,372.216492 1604.912964,359.318268 
	C1604.248657,358.634735 1603.703369,357.835541 1602.655273,356.534943 
	C1610.102539,355.952271 1616.405762,354.894867 1621.970581,361.423248 
	C1630.057007,370.910522 1639.177368,379.519989 1647.909302,388.452423 
	C1652.578003,393.228424 1652.648193,393.199982 1657.146973,388.613708 
	C1665.195801,380.408264 1673.235840,372.194122 1681.244995,363.950073 
	C1689.584106,355.366425 1689.566162,355.348999 1702.994995,356.459167 
	C1694.688843,365.047821 1686.787964,373.217560 1678.637085,381.637573 
z"/>
<path fill="#679AB0" opacity="1.000000" stroke="none" 
	d="
M1533.000000,356.108032 
	C1544.317017,356.110291 1555.135864,356.003326 1565.949951,356.180939 
	C1568.873901,356.228973 1573.024780,354.131500 1573.084106,360.504547 
	C1573.141479,366.638977 1569.349976,365.080658 1566.199585,365.111877 
	C1557.380371,365.199341 1548.547852,365.415070 1539.744385,365.033478 
	C1535.020386,364.828735 1533.510986,366.072418 1533.580933,370.994324 
	C1533.862671,390.793884 1533.604370,410.600616 1533.772949,430.402740 
	C1533.806885,434.400879 1533.333008,436.331055 1528.502197,436.227661 
	C1524.081909,436.132965 1522.951050,435.013947 1523.005249,430.619446 
	C1523.252075,410.652527 1522.947021,390.678406 1523.234741,370.712585 
	C1523.303345,365.940063 1521.763184,364.907104 1517.348511,365.046539 
	C1507.539673,365.356232 1497.710693,364.994080 1487.897705,365.228546 
	C1484.326050,365.313873 1483.875854,363.789215 1483.879517,360.799500 
	C1483.883301,357.711975 1484.156006,355.960236 1488.068115,356.018982 
	C1502.875854,356.241394 1517.688965,356.106750 1533.000000,356.108032 
z"/>
<path fill="#6699AD" opacity="1.000000" stroke="none" 
	d="
M239.219681,435.719177 
	C215.643951,436.028931 192.297562,436.010803 168.484131,435.984955 
	C167.966278,410.683197 168.022690,385.388092 167.768280,360.096130 
	C167.721115,355.408081 170.445923,356.258545 173.204666,356.065094 
	C176.375198,355.842773 177.998032,356.463257 177.963959,360.289734 
	C177.786240,380.259430 177.862854,400.231567 177.893448,420.202820 
	C177.905502,428.080811 177.166382,426.939423 184.391449,426.963654 
	C200.201859,427.016632 216.012558,426.983887 231.823135,426.988800 
	C240.049789,426.991333 240.049789,426.993835 239.219681,435.719177 
z"/>
<path fill="#6197AE" opacity="1.000000" stroke="none" 
	d="
M1443.748047,431.526611 
	C1443.995850,432.424805 1444.039429,432.875305 1444.015503,433.660217 
	C1442.426392,435.334564 1440.526367,435.373383 1438.352539,435.701050 
	C1437.589722,435.907867 1437.135254,435.945648 1436.343384,435.920441 
	C1434.539551,434.448151 1434.501587,432.643860 1434.503174,430.776459 
	C1434.521729,407.993866 1434.523193,385.211273 1434.504761,362.428680 
	C1434.502686,359.792053 1434.535034,357.396118 1438.089844,357.036133 
	C1442.321777,356.607513 1443.462280,357.442688 1443.473755,361.734894 
	C1443.536011,384.849487 1443.405762,407.964325 1443.748047,431.526611 
z"/>
<path fill="#6F96A3" opacity="1.000000" stroke="none" 
	d="
M1444.026367,431.512878 
	C1442.368164,430.473907 1443.034058,428.526031 1443.030273,426.777100 
	C1442.984131,405.486542 1442.998413,384.195892 1443.002075,362.905243 
	C1443.002441,360.413788 1443.517700,357.858276 1439.472412,357.917084 
	C1435.870483,357.969513 1434.953979,359.567780 1434.965088,362.833038 
	C1435.041016,385.287750 1435.015381,407.742859 1434.984253,430.197784 
	C1434.981934,431.897247 1435.232300,433.496979 1435.944824,435.453308 
	C1433.428955,436.167053 1434.000000,434.228149 1433.998413,432.889313 
	C1433.969849,408.430389 1434.051514,383.971039 1433.915039,359.512848 
	C1433.888672,354.790741 1437.035522,356.382111 1439.363770,356.119934 
	C1442.367554,355.781616 1444.264282,356.170135 1444.231934,360.171661 
	C1444.040161,383.797058 1444.115112,407.424622 1444.026367,431.512878 
z"/>
<path fill="#6F96A3" opacity="1.000000" stroke="none" 
	d="
M1438.455566,435.938538 
	C1439.569214,434.689209 1441.377563,434.294495 1443.585693,433.999146 
	C1443.495483,437.798889 1440.578247,435.380096 1438.455566,435.938538 
z"/>
<path fill="#111B23" opacity="1.000000" stroke="none" 
	d="
M35.634712,13.270815 
	C35.989323,14.083224 35.974552,14.799334 35.936729,15.872850 
	C35.001564,15.776114 34.089451,15.321969 33.027481,14.597168 
	C32.745171,14.149475 32.612724,13.972441 32.741493,13.591069 
	C33.756916,13.315994 34.511124,13.245255 35.634712,13.270815 
z"/>
<path fill="#111B23" opacity="1.000000" stroke="none" 
	d="
M176.789398,78.297134 
	C177.593872,78.169128 178.927246,77.825768 178.320648,79.755997 
	C177.702026,79.502769 177.299408,79.045242 176.789398,78.297134 
z"/>
<path fill="#111B23" opacity="1.000000" stroke="none" 
	d="
M32.767300,13.294476 
	C33.002712,13.386733 32.950592,13.857866 32.914108,14.092188 
	C32.501999,14.035503 32.126377,13.744498 31.750757,13.453493 
	C32.011135,13.369734 32.271511,13.285975 32.767300,13.294476 
z"/>
<path fill="#FDFEFE" opacity="1.000000" stroke="none" 
	d="
M287.887573,383.105713 
	C288.074554,369.431824 291.400208,365.183594 305.453918,364.482666 
	C321.207489,363.696991 337.062714,363.267487 352.822601,364.905640 
	C361.719910,365.830505 365.859711,370.445404 366.006195,379.409607 
	C366.188354,390.559540 366.173126,401.718231 365.951538,412.867371 
	C365.783417,421.327087 361.250549,426.462616 352.802948,426.890137 
	C335.679047,427.756775 318.514923,427.707794 301.389221,426.908478 
	C292.740173,426.504761 288.180237,421.288696 287.990051,412.554352 
	C287.779907,402.902924 287.906799,393.244141 287.887573,383.105713 
z"/>
<path fill="#FEFFFF" opacity="1.000000" stroke="none" 
	d="
M959.917236,188.905884 
	C947.882019,201.359436 933.035706,206.547272 916.541809,207.028275 
	C900.389221,207.499298 884.212097,207.078918 868.047119,207.215912 
	C865.178711,207.240219 864.447876,206.364914 864.453064,203.561005 
	C864.536682,157.895905 864.533020,112.230576 864.467834,66.565414 
	C864.464050,63.935730 864.884399,62.746590 867.930969,62.781967 
	C884.094116,62.969681 900.272888,62.537346 916.422180,63.060825 
	C951.543823,64.199303 975.104309,87.060249 977.948914,122.166107 
	C979.225586,137.922668 978.177307,153.406036 972.548584,168.348801 
	C969.706299,175.894440 965.671448,182.725677 959.917236,188.905884 
z"/>
<path fill="#FDFDFD" opacity="1.000000" stroke="none" 
	d="
M1467.999756,167.508148 
	C1451.513672,167.514175 1435.527222,167.461472 1419.541992,167.578873 
	C1416.557373,167.600784 1415.779907,167.084274 1417.074097,164.072983 
	C1430.437012,132.979767 1443.697510,101.842506 1456.996094,70.721603 
	C1457.112549,70.448845 1457.359375,70.231812 1457.868774,69.565735 
	C1461.210693,77.401306 1464.472046,84.983994 1467.682739,92.588127 
	C1477.619019,116.120651 1487.419556,139.711746 1497.567627,163.152512 
	C1499.402832,167.392029 1498.250000,167.668793 1494.475464,167.578339 
	C1485.821411,167.370941 1477.158813,167.509872 1467.999756,167.508148 
z"/>
<path fill="#FEFFFF" opacity="1.000000" stroke="none" 
	d="
M229.343948,122.645004 
	C230.050079,122.925873 231.373474,122.916710 230.903610,123.967133 
	C230.540771,124.778343 229.784866,123.881279 228.955368,123.574829 
	C228.854599,123.154648 228.993637,123.008286 229.343948,122.645004 
z"/>
<path fill="#FDFFFF" opacity="1.000000" stroke="none" 
	d="
M1379.111084,382.769897 
	C1378.602173,391.593903 1376.046021,394.751923 1368.040649,394.898438 
	C1350.396362,395.221466 1332.743164,395.036194 1315.093872,395.131226 
	C1312.763916,395.143768 1311.835815,394.346619 1311.862549,391.962067 
	C1311.952148,383.970337 1311.905151,375.977051 1311.892090,367.984344 
	C1311.889404,366.354126 1312.054932,365.007904 1314.226318,365.036102 
	C1332.198853,365.269714 1350.208496,364.133118 1368.134277,365.609039 
	C1377.656738,366.393036 1379.096680,369.018311 1379.115479,379.813599 
	C1379.116943,380.646179 1379.113770,381.478790 1379.111084,382.769897 
z"/>
<path fill="#FDFEFE" opacity="1.000000" stroke="none" 
	d="
M600.000000,426.867249 
	C590.678101,426.866333 581.855164,426.791962 573.034790,426.908051 
	C570.275208,426.944336 568.792725,426.525543 568.819214,423.175446 
	C568.962830,405.033386 568.893921,386.889587 568.882690,368.746399 
	C568.881531,366.817932 568.828064,365.064819 571.613892,365.124634 
	C591.399841,365.549286 611.223145,364.092346 630.971680,365.888702 
	C640.712219,366.774719 644.329224,370.541260 644.772278,380.246429 
	C645.249878,390.709229 645.270508,401.229401 644.769531,411.690033 
	C644.281982,421.869476 638.513733,426.627625 627.464539,426.826019 
	C618.479004,426.987305 609.488342,426.864258 600.000000,426.867249 
z"/>
</svg>